<svg preserveAspectRatio="none" width="100%" height="100%" overflow="visible" style="display: block;" viewBox="0 0 74.212 46.0291" fill="none" xmlns="http://www.w3.org/2000/svg">
<path id="Vector 4" d="M10.3015 6.79181C5.00864 23.2584 1.84096 33.3584 1.02565 36.1028C0.501421 37.8674 7.99366 38.1299 25.3891 38.8606C34.8923 39.2598 45.578 42.2377 51.6215 43.5965C57.6651 44.9553 58.6942 45.2494 59.8125 44.8863C67.1824 42.4933 69.9927 30.4313 70.8169 25.3746C71.704 19.9318 71.7837 15.7201 72.374 12.5212C72.7106 10.6973 73.5658 9.17536 73.0512 7.98804C72.3927 6.46863 64.1251 7.23733 54.1788 7.16382C49.8139 7.13156 46.8566 6.79181 40.3542 6.20372C22.2636 4.56757 19.2298 2.04254 16.5477 1.44776C15.9507 1.29851 15.3626 1.15148 14.7656 1.07574C14.1686 1 13.5805 1 12.9746 1" stroke="var(--stroke-0, #272727)" stroke-width="2" stroke-linecap="round"/>
</svg>
