<svg preserveAspectRatio="none" width="100%" height="100%" overflow="visible" style="display: block;" viewBox="0 0 45.1078 35.5714" fill="none" xmlns="http://www.w3.org/2000/svg">
<path id="Vector 7" d="M1.38051 34.5714C5.07336 34.5714 9.49359 31.8857 13.0567 25.8022C14.8534 22.7347 13.5984 18.3758 12.4997 16.1326C9.88384 10.7918 4.95129 13.04 3.08961 13.0374C2.21923 13.0363 1.56364 13.7063 1.21776 14.3015C0.871871 14.8966 0.871871 15.568 1.71115 16.4175C5.78336 20.539 9.33591 20.4918 12.1361 20.9216C15.4334 21.4278 18.4917 21.0106 21.6276 19.7416C26.4647 17.784 29.845 15.4256 33.3267 13.0476C38.1666 10.161 40.8727 8.13146 43.3371 4.3216C43.7669 3.38059 43.9348 2.70916 44.1077 1.00008" stroke="var(--stroke-0, #272727)" stroke-width="2" stroke-linecap="round"/>
</svg>
