<svg preserveAspectRatio="none" width="100%" height="100%" overflow="visible" style="display: block;" viewBox="0 0 47.1128 76.5795" fill="none" xmlns="http://www.w3.org/2000/svg">
<path id="Vector 6" d="M30.5278 22.1166C24.9409 20.9404 20.4456 17.5411 17.9217 12.794C16.4367 10.0009 16.7166 7.57472 16.9371 5.42507C17.1241 3.60243 18.4942 2.51803 19.53 1.84975C21.8 0.385201 24.4286 1.17701 26.1349 1.54456C27.5714 1.85398 27.8502 5.46294 28.8125 8.72863C29.1843 9.99009 29.9219 10.23 30.96 9.79343C36.2796 7.55597 38.0928 4.7501 40.3204 4.22216C40.9057 4.08344 41.5055 4.00163 42.176 4.14642C46.9059 5.16782 46.1211 14.8323 45.9741 16.1666C45.7167 18.5023 42.2718 19.586 40.1155 20.7021C37.4393 22.0872 32.203 24.469 26.8344 26.4916C20.5502 28.8593 18.2135 30.1271 15.5382 31.5417C12.0868 33.3665 6.93286 36.9525 4.2508 38.7435C0.0668852 41.5375 0.677713 52.0825 1.9341 58.331C2.90509 63.16 4.09042 67.8362 5.57179 72.0019C7.50315 73.6458 10.4614 74.5369 13.8786 75.1317C15.2107 75.2809 17.269 75.4279 19.3897 75.5794" stroke="var(--stroke-0, #272727)" stroke-width="2" stroke-linecap="round"/>
</svg>
