<svg preserveAspectRatio="none" width="100%" height="100%" overflow="visible" style="display: block;" viewBox="0 0 51.7435 60.5151" fill="none" xmlns="http://www.w3.org/2000/svg">
<path id="Vector 2" d="M1.73976 24.8322C2.62188 23.95 7.92806 21.2903 16.6024 17.1402C23.2641 13.9531 28.0033 11.1769 33.1826 8.96039C45.2543 3.79417 47.4727 1.51793 49.0276 1.14814C49.854 0.95159 50.7295 0.63133 50.7429 2.61168C50.7854 8.91569 48.8182 14.7188 48.3014 17.8285C47.156 24.7209 43.4764 29.7062 41.1775 36.9081C39.3586 42.6063 36.8024 51.5012 34.8622 57.9345C34.5882 58.843 34.4144 59.4226 33.9711 59.505C33.5278 59.5874 32.7927 59.1464 32.267 58.4046C29.9978 55.2026 30.4047 51.1359 30.1797 44.6825C30.104 42.5096 29.8077 38.8216 29.4402 34.2929C29.3083 32.6679 28.3375 32.5575 27.3707 32.4818C22.853 32.1279 14.8649 32.8516 6.14598 31.7422C3.08077 31.221 1.59717 30.3299 1.00017 29.8109C0.991264 29.5859 1.57935 29.4389 2.6308 29.2874" stroke="var(--stroke-0, #272727)" stroke-width="2" stroke-linecap="round"/>
</svg>
