<svg preserveAspectRatio="none" width="100%" height="100%" overflow="visible" style="display: block;" viewBox="0 0 464 410.722" fill="none" xmlns="http://www.w3.org/2000/svg">
<path id="Union" d="M250.358 36.5545C299.232 -12.1849 378.471 -12.1848 427.345 36.5545C476.218 85.2939 476.218 164.316 427.345 213.055L364.416 275.811C364.398 275.829 364.369 275.829 364.351 275.811C364.334 275.794 364.305 275.794 364.287 275.811L229.592 410.138C228.811 410.917 227.548 410.917 226.767 410.138L99.6383 283.358C99.6341 283.354 99.6274 283.354 99.6234 283.358C99.6193 283.362 99.6126 283.363 99.6084 283.358L36.6551 220.578C-12.2184 171.839 -12.2184 92.8164 36.6551 44.077C85.5285 -4.66239 164.768 -4.66242 213.641 44.077L227.967 58.363C228.006 58.4019 228.07 58.402 228.109 58.3632C228.148 58.3243 228.211 58.3244 228.25 58.3634L228.274 58.3874C228.327 58.4398 228.411 58.4399 228.464 58.3876L250.358 36.5545Z" fill="var(--fill-0, #E8CCD8)"/>
</svg>
