<svg preserveAspectRatio="none" width="100%" height="100%" overflow="visible" style="display: block;" viewBox="0 0 240.63 212.603" fill="none" xmlns="http://www.w3.org/2000/svg">
<path id="Union" d="M129.835 18.9571C155.181 -6.31895 196.275 -6.31909 221.621 18.9571C246.966 44.2332 246.966 85.214 221.621 110.49L188.986 143.036C188.977 143.045 188.962 143.045 188.952 143.036C188.943 143.026 188.927 143.026 188.918 143.036L119.746 212.019C118.965 212.798 117.702 212.798 116.921 212.019L51.6712 146.949C51.6692 146.947 51.6659 146.947 51.6641 146.949C51.6622 146.951 51.659 146.951 51.657 146.949L19.0093 114.392C-6.33643 89.1154 -6.33643 48.1346 19.0093 22.8584C44.355 -2.41769 85.4478 -2.41764 110.793 22.8584L118.222 30.2669C118.243 30.2873 118.276 30.2874 118.296 30.2671C118.317 30.2468 118.35 30.2468 118.37 30.2671L118.383 30.2792C118.41 30.3063 118.454 30.3062 118.481 30.279L129.835 18.9571Z" fill="var(--fill-0, #6C6C6A)"/>
</svg>
