<svg preserveAspectRatio="none" width="100%" height="100%" overflow="visible" style="display: block;" viewBox="0 0 90.7634 52.4891" fill="none" xmlns="http://www.w3.org/2000/svg">
<path id="Vector 1" d="M1 30.4068C1.27247 30.4068 2.36653 29.451 4.56084 26.979C7.5446 23.6177 10.2066 17.755 13.497 10.3286C15.251 6.36982 17.8774 2.35603 18.5957 1.27C19.3141 0.183962 18.2242 2.23191 16.0278 9.97689C13.8314 17.7219 10.5616 31.1018 8.74097 38.3358C6.29258 48.0639 5.81798 50.8118 5.40719 51.4345C5.25003 51.6727 4.72392 51.1014 4.51336 50.276C4.003 48.2754 6.75515 43.6791 11.9014 37.4174C16.9011 31.3337 21.2215 27.8003 22.9369 25.1172C27.0926 18.6173 35.374 12.9144 39.4386 9.8776C39.6999 9.68238 32.5749 14.3665 22.4703 21.3937C13.8596 27.382 11.1974 29.2897 10.0125 31.6417C9.36725 32.9227 13.9222 31.3749 17.8939 31.5073C31.5477 31.9624 34.4369 45.0196 35.8055 45.0962C46.3355 45.685 48.8867 27.6513 49.9147 27.0328C50.5223 26.6672 51.3514 26.2778 52.2494 26.5446C56.2256 27.7263 56.9992 32.5912 57.9034 35.7749C58.0937 36.4448 57.9736 37.1505 58.0417 37.7753C58.1098 38.4 58.246 38.9461 58.9974 37.1795C61.4364 31.4452 64.0136 25.049 66.5568 21.3999C69.9044 16.5966 71.4573 12.7654 71.9404 10.5561C72.0597 10.0102 72.0105 9.4556 71.8743 8.96947C71.6085 8.02123 69.8224 6.69604 67.2132 5.11146C65.0717 3.8109 62.936 4.06473 61.2206 4.68118C56.5466 6.36089 55.5006 11.7766 53.6551 12.4779C49.151 14.1895 45.0596 7.10149 41.6205 7.23596C40.3336 7.28627 40.0888 8.1896 40.0847 9.36044C40.0747 12.1825 41.1788 14.8134 42.6176 16.7393C46.0863 21.3823 54.4891 22.8024 63.095 25.773C70.8332 28.4441 75.9945 31.6397 78.0485 33.5635C79.4212 34.6682 81.4648 36.0335 83.4713 37.2146C85.4777 38.3958 87.3851 39.3515 89.7631 40.3362" stroke="var(--stroke-0, black)" stroke-width="2" stroke-linecap="round"/>
</svg>
